<svg xmlns="http://www.w3.org/2000/svg" viewBox="0 0 64 64" role="img" aria-label="Bible Mapped icon">
  <rect width="64" height="64" rx="14" fill="#fbf7ee"/>
  <path d="M12.8 8.2c11.2-.9 22.7-1 34.3.1 5.9.6 8.7 3 9 8.9.5 9.7.4 19.6-.1 29.5-.3 5.9-3.1 8.5-9 9.1-10.1 1-20.4 1-31 .1-5.5-.5-8.4-3.2-8.8-8.8-.7-10.4-.7-20.6.1-30.7.4-5.1 2.3-7.8 5.5-8.2Z" fill="none" stroke="#191612" stroke-width="3.2" stroke-linecap="round" stroke-linejoin="round"/>
  <circle cx="31.2" cy="31.7" r="16.8" fill="#fdfaf3" stroke="#191612" stroke-width="2.4"/>
  <path d="M19.5 24.5c3.2-5 8-7.8 13.3-8.1 1.4 2.4.4 4.2-2.3 5.3-2.2.8-3.1 2.3-2.8 4.3.2 1.7-.7 2.8-2.8 3.1-2 .3-3.8-.1-5.4-1.2-.8-.5-.8-1.7 0-3.4Zm23.7 1.3c2.2 2.5 3.5 5.6 3.8 9.2-2.6.3-4.8-.1-6.7-1.3-1.9-1.2-2.3-2.8-1.2-4.8.8-1.6 2.2-2.6 4.1-3.1ZM27.8 47.5c-5.5-1.1-9.6-4.4-11.7-9.2 2.7-.8 4.7-.3 6 1.5 1.2 1.7 2.8 2.3 4.8 1.8 1.6-.4 2.8.3 3.5 2 .5 1.3-.4 2.6-2.6 3.9Z" fill="#64d35e" stroke="#191612" stroke-width="1.5" stroke-linejoin="round"/>
  <path d="M43.7 18.9c4.2 3.2 6.8 7.8 7.5 13.1.2 1.8-.9 3.4-2.6 4l-9.5 3.1c-1.6.5-3.3-.4-3.7-2.1l-.9-3.8c-.4-1.6.4-3.2 1.9-3.8l4.3-1.9c1.2-.5 1.8-1.9 1.2-3.1l-1.1-2.3c-.7-1.4.2-3.1 1.8-3.3.4 0 .8 0 1.1.1Z" fill="#64d35e" stroke="#191612" stroke-width="1.5" stroke-linejoin="round"/>
  <path d="M44.9 17.6c-6.3 0-11.4 5.1-11.4 11.4 0 8.2 11.4 20.1 11.4 20.1S56.3 37.2 56.3 29c0-6.3-5.1-11.4-11.4-11.4Z" fill="#8c2cff" stroke="#191612" stroke-width="2.5" stroke-linejoin="round"/>
  <circle cx="44.9" cy="29" r="4.2" fill="#fbf7ee" stroke="#191612" stroke-width="2"/>
</svg>
